<svg id="Layer_1" data-name="Layer 1" xmlns="http://www.w3.org/2000/svg" viewBox="0 0 30 30"><defs><style>.cls-1{fill:#fff;}</style></defs><title>Icones_Ketocal</title><path class="cls-1" d="M23.4,0H6.6A3.17,3.17,0,0,0,3.44,3.17V26.83A3.17,3.17,0,0,0,6.6,30H23.4a3.17,3.17,0,0,0,3.16-3.17V3.17A3.17,3.17,0,0,0,23.4,0Zm2,26.83a2,2,0,0,1-2,2H6.6a2,2,0,0,1-2-2V3.17a2,2,0,0,1,2-2H23.4a2,2,0,0,1,2,2Z"/><path class="cls-1" d="M20.59,3.69H9.41a2.05,2.05,0,0,0-2,2.05V11a2.05,2.05,0,0,0,2.05,2.05H20.59A2.05,2.05,0,0,0,22.64,11V5.74A2.05,2.05,0,0,0,20.59,3.69ZM21.47,11a.88.88,0,0,1-.88.88H9.41A.88.88,0,0,1,8.53,11V5.74a.87.87,0,0,1,.88-.88H20.59a.87.87,0,0,1,.88.88Z"/><path class="cls-1" d="M10.42,16a1,1,0,0,0,0,2,1,1,0,1,0,0-2Z"/><path class="cls-1" d="M15,16a1,1,0,1,0,1,1A1,1,0,0,0,15,16Z"/><path class="cls-1" d="M19.58,16a1,1,0,1,0,1,1A1,1,0,0,0,19.58,16Z"/><path class="cls-1" d="M10.42,19.8a1,1,0,1,0,1,1A1,1,0,0,0,10.42,19.8Z"/><path class="cls-1" d="M15,19.8a1,1,0,1,0,1,1A1,1,0,0,0,15,19.8Z"/><path class="cls-1" d="M19.58,19.8a1,1,0,1,0,0,2,1,1,0,0,0,0-2Z"/><path class="cls-1" d="M10.42,23.63a1,1,0,0,0,0,2,1,1,0,1,0,0-2Z"/><path class="cls-1" d="M15,23.63a1,1,0,1,0,1,1A1,1,0,0,0,15,23.63Z"/><path class="cls-1" d="M19.58,23.63a1,1,0,1,0,1,1A1,1,0,0,0,19.58,23.63Z"/></svg>