<svg id="Layer_1" data-name="Layer 1" xmlns="http://www.w3.org/2000/svg" viewBox="0 0 30 30"><defs><style>.cls-1{fill:#fff;}</style></defs><title>Icones_Ketocal</title><path class="cls-1" d="M18.65,10.73a.76.76,0,0,1-.53-1.29l6.05-6a.77.77,0,0,1,1.07,0,.75.75,0,0,1,0,1.07l-6,6.05A.75.75,0,0,1,18.65,10.73Z"/><path class="cls-1" d="M20.92,13a.76.76,0,0,1-.53-1.29l6.05-6.05a.76.76,0,0,1,1.07,1.07l-6.05,6A.75.75,0,0,1,20.92,13Z"/><path class="cls-1" d="M4.87,29.1A3.51,3.51,0,0,1,2.36,28l-.26-.26a3.34,3.34,0,0,1,.35-5.11l11.07-8.43A3.45,3.45,0,0,0,14.91,11a5.31,5.31,0,0,1,1.7-5.09L21.93,1.1a.75.75,0,1,1,1,1.12L17.63,7a3.87,3.87,0,0,0-1.28,3.5,4.84,4.84,0,0,1-1.91,4.94L3.36,23.88a1.9,1.9,0,0,0-.77,1.37,1.86,1.86,0,0,0,.58,1.46l.26.26A2,2,0,0,0,5,27.58a2,2,0,0,0,1.46-.73l8.94-10.52a5.12,5.12,0,0,1,5.05-1.77,3.88,3.88,0,0,0,3.49-1.28L28.68,8a.76.76,0,1,1,1.13,1L25,14.29A5.31,5.31,0,0,1,19.93,16a3.72,3.72,0,0,0-3.42,1.32L7.57,27.83A3.49,3.49,0,0,1,5,29.1Z"/><path class="cls-1" d="M9.58,14.52H8.89A5.49,5.49,0,0,1,7.21,13L3.28,8.23A8.49,8.49,0,0,1,1.72,4.61L1.53,3.06a.13.13,0,0,0,0-.06l.05,0,9.74,9.74.9.9,1.22-.92-1-1L2.64,2C1.73,1.06,1.05,1.2.72,1.35S-.12,2,0,3.25L.22,4.79a10,10,0,0,0,1.89,4.4L6,14c.17.2,1.7,2,2.78,2h.76a.76.76,0,0,0,0-1.51Z"/><path class="cls-1" d="M24.41,22.57l-6.17-5.29-1,1.17,6.16,5.26a2,2,0,0,1,.11,3l-.26.26a1.92,1.92,0,0,1-1.52.61,2,2,0,0,1-1.46-.73l-5.06-6-1,1.18,4.88,5.76A3.51,3.51,0,0,0,21.7,29.1h.15A3.49,3.49,0,0,0,24.35,28l.26-.26a3.51,3.51,0,0,0-.2-5.21Z"/></svg>