<svg id="Layer_1" data-name="Layer 1" xmlns="http://www.w3.org/2000/svg" viewBox="0 0 30 30"><defs><style>.cls-1{fill:#fff;}</style></defs><title>Icones_Ketocal</title><path class="cls-1" d="M28.21,13H25.85a4.77,4.77,0,0,0-4.71-4.09H19.62l-.29-1.17a2,2,0,0,0-2-1.55H14a2,2,0,0,0-2,1.55l-.29,1.17H8.86A4.77,4.77,0,0,0,4.15,13H1.79A1.79,1.79,0,0,0,0,14.74a1.71,1.71,0,0,0,.19.8l.87,1.73a2,2,0,0,0,1.83,1.14h1.2v8.18a2.73,2.73,0,0,0,2.73,2.73H23.18a2.73,2.73,0,0,0,2.73-2.73V18.41h1.2a2,2,0,0,0,1.83-1.13l.87-1.74a1.71,1.71,0,0,0,.19-.8A1.79,1.79,0,0,0,28.21,13ZM13.36,8A.67.67,0,0,1,14,7.5h3.32A.69.69,0,0,1,18,8l.21.84H13.15Zm-4.5,2.21H21.14A3.42,3.42,0,0,1,24.48,13h-19A3.42,3.42,0,0,1,8.86,10.23Zm-6,6.82a.68.68,0,0,1-.61-.39l-.87-1.73a.45.45,0,0,1,0-.19.42.42,0,0,1,.43-.42h2.3v2.73Zm21.66,9.54A1.37,1.37,0,0,1,23.18,28H6.82a1.37,1.37,0,0,1-1.37-1.36V14.32h19.1V26.59Zm4-11.66-.87,1.74a.69.69,0,0,1-.61.38h-1.2V14.32h2.3a.42.42,0,0,1,.43.42A.45.45,0,0,1,28.59,14.93Z"/><path class="cls-1" d="M20.69,4.62a1.09,1.09,0,0,1,.43.83,1.09,1.09,0,0,1-.43.84.68.68,0,0,0-.09,1,.65.65,0,0,0,.52.25.66.66,0,0,0,.44-.16,2.37,2.37,0,0,0,.1-3.68.38.38,0,0,0-.09-.09,1.11,1.11,0,0,1-.43-.84,1.09,1.09,0,0,1,.43-.84.68.68,0,0,0,.09-1,.66.66,0,0,0-.51-.25.69.69,0,0,0-.45.16,2.43,2.43,0,0,0-.93,1.89,2.44,2.44,0,0,0,.83,1.8Z"/><path class="cls-1" d="M24.28,5.68a1.1,1.1,0,0,1,.44.84,1.1,1.1,0,0,1-.44.83.68.68,0,0,0-.09,1,.67.67,0,0,0,.53.25.66.66,0,0,0,.43-.16,2.37,2.37,0,0,0,.1-3.68.24.24,0,0,0-.08-.09,1.09,1.09,0,0,1-.44-.84A1.07,1.07,0,0,1,25.17,3a.68.68,0,0,0,.09-1,.74.74,0,0,0-.52-.25.66.66,0,0,0-.44.16,2.43,2.43,0,0,0-.93,1.89,2.43,2.43,0,0,0,.82,1.8Z"/></svg>