<svg id="Layer_1" data-name="Layer 1" xmlns="http://www.w3.org/2000/svg" viewBox="0 0 30 30"><defs><style>.cls-1{fill:#fff;}</style></defs><title>Icones_Ketocal</title><path class="cls-1" d="M28.55,13.16l-3.48-2.92L25,10.18h0l0,0L15.24,6.55l-.12,0h-.07a.45.45,0,0,0-.2,0L5.2,10.25l-.07,0L5,10.34,1.46,13.27a.56.56,0,0,0-.2.48.57.57,0,0,0,.29.43l3.3,1.73v8.68a.55.55,0,0,0,.28.48l9.66,5.12a.58.58,0,0,0,.26.06.51.51,0,0,0,.26-.07L25,25a.54.54,0,0,0,.29-.48V15.8l3.21-1.74a.56.56,0,0,0,.28-.43A.53.53,0,0,0,28.55,13.16Zm-1.31.32-8.63,4.68L16,16l8.63-4.68ZM15.59,15V7.84l7.8,2.89Zm8.57,1.43v7.76l-8.57,4.64V17l2.6,2.19a.54.54,0,0,0,.61.06Zm-18.23.09,5.37,2.81a.55.55,0,0,0,.61-.06l2.59-2.18V28.8L5.93,24.26Zm8.15-.5-2.6,2.18L2.78,13.6l2.68-2.19Zm.42-8.13V15L6.7,10.84Z"/><path class="cls-1" d="M6.55,4.29l2.32.84.84,2.32a.54.54,0,0,0,1,0l.84-2.32,2.32-.84a.55.55,0,0,0,.36-.51.54.54,0,0,0-.36-.51l-2.32-.85L10.73.11a.54.54,0,0,0-1,0L8.87,2.42l-2.32.85a.53.53,0,0,0-.36.51A.54.54,0,0,0,6.55,4.29Zm1.78-.51,1.15-.42A.51.51,0,0,0,9.8,3l.42-1.15L10.63,3a.54.54,0,0,0,.33.33l1.15.42L11,4.2a.55.55,0,0,0-.33.32l-.41,1.15L9.8,4.52a.51.51,0,0,0-.32-.32Zm2.16,3.58Z"/><path class="cls-1" d="M19.69,5.67l1.74.63.64,1.75a.55.55,0,0,0,1,0l.64-1.75,1.74-.63a.55.55,0,0,0,0-1L23.73,4l-.64-1.75a.53.53,0,0,0-.51-.34h0a.53.53,0,0,0-.51.34L21.43,4l-1.74.63a.55.55,0,0,0,0,1Zm.08-.24Zm1.7-.28L22,4.94a.52.52,0,0,0,.33-.32L22.58,4l.21.58a.5.5,0,0,0,.33.32l.57.21-.57.21a.54.54,0,0,0-.33.33l-.21.58-.21-.58A.57.57,0,0,0,22,5.36ZM22.86,8Z"/><path class="cls-1" d="M4.77,7.81h.92v.92a.55.55,0,0,0,.55.54.54.54,0,0,0,.54-.54V7.81H7.7a.55.55,0,0,0,.54-.55.54.54,0,0,0-.54-.54H6.78V5.8a.54.54,0,0,0-.54-.54.55.55,0,0,0-.55.54v.92H4.77a.54.54,0,0,0-.54.54A.55.55,0,0,0,4.77,7.81Z"/></svg>