<svg id="Layer_1" data-name="Layer 1" xmlns="http://www.w3.org/2000/svg" viewBox="0 0 30 30"><defs><style>.cls-1{fill:#fff;}</style></defs><title>Icones_Ketocal</title><path class="cls-1" d="M26.88,13.12a3.12,3.12,0,0,0-3,2.35l-2.64-.14a6.26,6.26,0,0,0-1.88-4.19L23,6.53a3.12,3.12,0,1,0-1.73-2.78,3.07,3.07,0,0,0,.75,2l-3.65,4.62A6.13,6.13,0,0,0,10.8,11l-5-4.46A3.12,3.12,0,1,0,3.12,8.12,3.08,3.08,0,0,0,5,7.5L10,12a6.17,6.17,0,0,0-.22,7L5.13,22.62A3.11,3.11,0,1,0,6.25,25a3,3,0,0,0-.35-1.4L10.52,20a6.1,6.1,0,0,0,7.32,1.2L19.69,24a3.12,3.12,0,1,0,2.19-.9,3.05,3.05,0,0,0-1.14.23l-1.85-2.87a6.21,6.21,0,0,0,2.26-3.91l2.65.14a3.12,3.12,0,1,0,3.08-3.59ZM24.38,1.87A1.88,1.88,0,1,1,22.5,3.75,1.88,1.88,0,0,1,24.38,1.87Zm-21.26,5A1.88,1.88,0,1,1,5,5,1.87,1.87,0,0,1,3.12,6.87Zm0,20A1.88,1.88,0,1,1,5,25,1.88,1.88,0,0,1,3.12,26.88Zm18.76-2.5A1.87,1.87,0,1,1,20,26.25,1.87,1.87,0,0,1,21.88,24.38ZM15,20.62a5,5,0,1,1,5-5A5,5,0,0,1,15,20.62Zm11.88-2.5a1.87,1.87,0,1,1,1.87-1.87A1.88,1.88,0,0,1,26.88,18.12Z"/></svg>