<svg id="Layer_1" data-name="Layer 1" xmlns="http://www.w3.org/2000/svg" viewBox="0 0 30 30"><defs><style>.cls-1{fill:#fff;}</style></defs><title>Icones_Ketocal</title><path class="cls-1" d="M26.71,0H3.29A3.29,3.29,0,0,0,0,3.29V20.86a3.28,3.28,0,0,0,3.29,3.28H4.71v4.92a1,1,0,0,0,.58.87.92.92,0,0,0,.36.07,1,1,0,0,0,.67-.28l5.58-5.58H26.71A3.28,3.28,0,0,0,30,20.86V3.29A3.29,3.29,0,0,0,26.71,0Zm1.4,20.86a1.4,1.4,0,0,1-1.4,1.39H11.51a1,1,0,0,0-.67.28L6.6,26.78V23.2a1,1,0,0,0-.95-.95H3.29a1.4,1.4,0,0,1-1.4-1.39V3.29a1.4,1.4,0,0,1,1.4-1.4H26.71a1.4,1.4,0,0,1,1.4,1.4Z"/></svg>