<svg id="Layer_1" data-name="Layer 1" xmlns="http://www.w3.org/2000/svg" viewBox="0 0 30 30"><defs><style>.cls-1{fill:#fff;}</style></defs><title>Icones_Ketocal</title><path class="cls-1" d="M14.88,12.44a2.68,2.68,0,1,1-2.69,2.68A2.68,2.68,0,0,1,14.88,12.44Z"/><path class="cls-1" d="M18.23,8.54H11.52a3.3,3.3,0,0,0-2.37.85,3.33,3.33,0,0,0-.86,2.38v6.71a3.35,3.35,0,0,0,.92,2.43,3.43,3.43,0,0,0,2.38.86h6.64a3.33,3.33,0,0,0,2.38-.86,3.1,3.1,0,0,0,.91-2.37V11.83a3.43,3.43,0,0,0-.85-2.38A3.26,3.26,0,0,0,18.23,8.54ZM14.88,19.27a4.15,4.15,0,1,1,0-8.29,4.15,4.15,0,1,1,0,8.29Zm4.33-7.5a1,1,0,1,1,0-1.95,1,1,0,0,1,0,1.95Z"/><path class="cls-1" d="M15,0A15,15,0,1,0,30,15,15,15,0,0,0,15,0Zm8,18.54A4.83,4.83,0,0,1,21.65,22a4.74,4.74,0,0,1-3.42,1.28H11.59A4.71,4.71,0,0,1,8.17,22a4.6,4.6,0,0,1-1.34-3.47V11.83a4.51,4.51,0,0,1,4.76-4.76h6.7a4.73,4.73,0,0,1,3.42,1.34A4.69,4.69,0,0,1,23,11.83Z"/></svg>