<svg width="0" height="0">
  <symbol xmlns="http://www.w3.org/2000/svg" id="icon-ketocal" viewBox="0 0 30 30">
    <path class="cls-1" d="M26.88,13.12a3.12,3.12,0,0,0-3,2.35l-2.64-.14a6.26,6.26,0,0,0-1.88-4.19L23,6.53a3.12,3.12,0,1,0-1.73-2.78,3.07,3.07,0,0,0,.75,2l-3.65,4.62A6.13,6.13,0,0,0,10.8,11l-5-4.46A3.12,3.12,0,1,0,3.12,8.12,3.08,3.08,0,0,0,5,7.5L10,12a6.17,6.17,0,0,0-.22,7L5.13,22.62A3.11,3.11,0,1,0,6.25,25a3,3,0,0,0-.35-1.4L10.52,20a6.1,6.1,0,0,0,7.32,1.2L19.69,24a3.12,3.12,0,1,0,2.19-.9,3.05,3.05,0,0,0-1.14.23l-1.85-2.87a6.21,6.21,0,0,0,2.26-3.91l2.65.14a3.12,3.12,0,1,0,3.08-3.59ZM24.38,1.87A1.88,1.88,0,1,1,22.5,3.75,1.88,1.88,0,0,1,24.38,1.87Zm-21.26,5A1.88,1.88,0,1,1,5,5,1.87,1.87,0,0,1,3.12,6.87Zm0,20A1.88,1.88,0,1,1,5,25,1.88,1.88,0,0,1,3.12,26.88Zm18.76-2.5A1.87,1.87,0,1,1,20,26.25,1.87,1.87,0,0,1,21.88,24.38ZM15,20.62a5,5,0,1,1,5-5A5,5,0,0,1,15,20.62Zm11.88-2.5a1.87,1.87,0,1,1,1.87-1.87A1.88,1.88,0,0,1,26.88,18.12Z"/>
  </symbol>
  <symbol xmlns="http://www.w3.org/2000/svg" id="icon-ketocal-2" viewBox="0 0 30 30">
    <path class="cls-1" d="M23.4,0H6.6A3.17,3.17,0,0,0,3.44,3.17V26.83A3.17,3.17,0,0,0,6.6,30H23.4a3.17,3.17,0,0,0,3.16-3.17V3.17A3.17,3.17,0,0,0,23.4,0Zm2,26.83a2,2,0,0,1-2,2H6.6a2,2,0,0,1-2-2V3.17a2,2,0,0,1,2-2H23.4a2,2,0,0,1,2,2Z"/><path class="cls-1" d="M20.59,3.69H9.41a2.05,2.05,0,0,0-2,2.05V11a2.05,2.05,0,0,0,2.05,2.05H20.59A2.05,2.05,0,0,0,22.64,11V5.74A2.05,2.05,0,0,0,20.59,3.69ZM21.47,11a.88.88,0,0,1-.88.88H9.41A.88.88,0,0,1,8.53,11V5.74a.87.87,0,0,1,.88-.88H20.59a.87.87,0,0,1,.88.88Z"/><path class="cls-1" d="M10.42,16a1,1,0,0,0,0,2,1,1,0,1,0,0-2Z"/><path class="cls-1" d="M15,16a1,1,0,1,0,1,1A1,1,0,0,0,15,16Z"/><path class="cls-1" d="M19.58,16a1,1,0,1,0,1,1A1,1,0,0,0,19.58,16Z"/><path class="cls-1" d="M10.42,19.8a1,1,0,1,0,1,1A1,1,0,0,0,10.42,19.8Z"/><path class="cls-1" d="M15,19.8a1,1,0,1,0,1,1A1,1,0,0,0,15,19.8Z"/><path class="cls-1" d="M19.58,19.8a1,1,0,1,0,0,2,1,1,0,0,0,0-2Z"/><path class="cls-1" d="M10.42,23.63a1,1,0,0,0,0,2,1,1,0,1,0,0-2Z"/><path class="cls-1" d="M15,23.63a1,1,0,1,0,1,1A1,1,0,0,0,15,23.63Z"/><path class="cls-1" d="M19.58,23.63a1,1,0,1,0,1,1A1,1,0,0,0,19.58,23.63Z"/>
  </symbol>
  <symbol xmlns="http://www.w3.org/2000/svg" id="icon-ketocal-3" viewBox="0 0 30 30">
    <path class="cls-1" d="M26.71,0H3.29A3.29,3.29,0,0,0,0,3.29V20.86a3.28,3.28,0,0,0,3.29,3.28H4.71v4.92a1,1,0,0,0,.58.87.92.92,0,0,0,.36.07,1,1,0,0,0,.67-.28l5.58-5.58H26.71A3.28,3.28,0,0,0,30,20.86V3.29A3.29,3.29,0,0,0,26.71,0Zm1.4,20.86a1.4,1.4,0,0,1-1.4,1.39H11.51a1,1,0,0,0-.67.28L6.6,26.78V23.2a1,1,0,0,0-.95-.95H3.29a1.4,1.4,0,0,1-1.4-1.39V3.29a1.4,1.4,0,0,1,1.4-1.4H26.71a1.4,1.4,0,0,1,1.4,1.4Z"/>
  </symbol>
    <symbol xmlns="http://www.w3.org/2000/svg" id="icon-ketocal-4" viewBox="0 0 30 30">
    <path class="cls-1" d="M28.55,13.16l-3.48-2.92L25,10.18h0l0,0L15.24,6.55l-.12,0h-.07a.45.45,0,0,0-.2,0L5.2,10.25l-.07,0L5,10.34,1.46,13.27a.56.56,0,0,0-.2.48.57.57,0,0,0,.29.43l3.3,1.73v8.68a.55.55,0,0,0,.28.48l9.66,5.12a.58.58,0,0,0,.26.06.51.51,0,0,0,.26-.07L25,25a.54.54,0,0,0,.29-.48V15.8l3.21-1.74a.56.56,0,0,0,.28-.43A.53.53,0,0,0,28.55,13.16Zm-1.31.32-8.63,4.68L16,16l8.63-4.68ZM15.59,15V7.84l7.8,2.89Zm8.57,1.43v7.76l-8.57,4.64V17l2.6,2.19a.54.54,0,0,0,.61.06Zm-18.23.09,5.37,2.81a.55.55,0,0,0,.61-.06l2.59-2.18V28.8L5.93,24.26Zm8.15-.5-2.6,2.18L2.78,13.6l2.68-2.19Zm.42-8.13V15L6.7,10.84Z"/><path class="cls-1" d="M6.55,4.29l2.32.84.84,2.32a.54.54,0,0,0,1,0l.84-2.32,2.32-.84a.55.55,0,0,0,.36-.51.54.54,0,0,0-.36-.51l-2.32-.85L10.73.11a.54.54,0,0,0-1,0L8.87,2.42l-2.32.85a.53.53,0,0,0-.36.51A.54.54,0,0,0,6.55,4.29Zm1.78-.51,1.15-.42A.51.51,0,0,0,9.8,3l.42-1.15L10.63,3a.54.54,0,0,0,.33.33l1.15.42L11,4.2a.55.55,0,0,0-.33.32l-.41,1.15L9.8,4.52a.51.51,0,0,0-.32-.32Zm2.16,3.58Z"/><path class="cls-1" d="M19.69,5.67l1.74.63.64,1.75a.55.55,0,0,0,1,0l.64-1.75,1.74-.63a.55.55,0,0,0,0-1L23.73,4l-.64-1.75a.53.53,0,0,0-.51-.34h0a.53.53,0,0,0-.51.34L21.43,4l-1.74.63a.55.55,0,0,0,0,1Zm.08-.24Zm1.7-.28L22,4.94a.52.52,0,0,0,.33-.32L22.58,4l.21.58a.5.5,0,0,0,.33.32l.57.21-.57.21a.54.54,0,0,0-.33.33l-.21.58-.21-.58A.57.57,0,0,0,22,5.36ZM22.86,8Z"/><path class="cls-1" d="M4.77,7.81h.92v.92a.55.55,0,0,0,.55.54.54.54,0,0,0,.54-.54V7.81H7.7a.55.55,0,0,0,.54-.55.54.54,0,0,0-.54-.54H6.78V5.8a.54.54,0,0,0-.54-.54.55.55,0,0,0-.55.54v.92H4.77a.54.54,0,0,0-.54.54A.55.55,0,0,0,4.77,7.81Z"/>
  </symbol>
  <symbol xmlns="http://www.w3.org/2000/svg" id="icon-ketocal-5" viewBox="0 0 30 30">
    <path class="cls-1" d="M18.65,10.73a.76.76,0,0,1-.53-1.29l6.05-6a.77.77,0,0,1,1.07,0,.75.75,0,0,1,0,1.07l-6,6.05A.75.75,0,0,1,18.65,10.73Z"/><path class="cls-1" d="M20.92,13a.76.76,0,0,1-.53-1.29l6.05-6.05a.76.76,0,0,1,1.07,1.07l-6.05,6A.75.75,0,0,1,20.92,13Z"/><path class="cls-1" d="M4.87,29.1A3.51,3.51,0,0,1,2.36,28l-.26-.26a3.34,3.34,0,0,1,.35-5.11l11.07-8.43A3.45,3.45,0,0,0,14.91,11a5.31,5.31,0,0,1,1.7-5.09L21.93,1.1a.75.75,0,1,1,1,1.12L17.63,7a3.87,3.87,0,0,0-1.28,3.5,4.84,4.84,0,0,1-1.91,4.94L3.36,23.88a1.9,1.9,0,0,0-.77,1.37,1.86,1.86,0,0,0,.58,1.46l.26.26A2,2,0,0,0,5,27.58a2,2,0,0,0,1.46-.73l8.94-10.52a5.12,5.12,0,0,1,5.05-1.77,3.88,3.88,0,0,0,3.49-1.28L28.68,8a.76.76,0,1,1,1.13,1L25,14.29A5.31,5.31,0,0,1,19.93,16a3.72,3.72,0,0,0-3.42,1.32L7.57,27.83A3.49,3.49,0,0,1,5,29.1Z"/><path class="cls-1" d="M9.58,14.52H8.89A5.49,5.49,0,0,1,7.21,13L3.28,8.23A8.49,8.49,0,0,1,1.72,4.61L1.53,3.06a.13.13,0,0,0,0-.06l.05,0,9.74,9.74.9.9,1.22-.92-1-1L2.64,2C1.73,1.06,1.05,1.2.72,1.35S-.12,2,0,3.25L.22,4.79a10,10,0,0,0,1.89,4.4L6,14c.17.2,1.7,2,2.78,2h.76a.76.76,0,0,0,0-1.51Z"/><path class="cls-1" d="M24.41,22.57l-6.17-5.29-1,1.17,6.16,5.26a2,2,0,0,1,.11,3l-.26.26a1.92,1.92,0,0,1-1.52.61,2,2,0,0,1-1.46-.73l-5.06-6-1,1.18,4.88,5.76A3.51,3.51,0,0,0,21.7,29.1h.15A3.49,3.49,0,0,0,24.35,28l.26-.26a3.51,3.51,0,0,0-.2-5.21Z"/>
  </symbol>
</svg>

